<?xml version="1.0" encoding="UTF-8"?> <svg xmlns="http://www.w3.org/2000/svg" xmlns:xlink="http://www.w3.org/1999/xlink" id="Layer_2" data-name="Layer 2" viewBox="0 0 1883 1120"> <defs> <style>.cls-1,.cls-2,.cls-38,.cls-39{fill:none;}.cls-2{stroke:#c2e9ff;stroke-width:3px;stroke-dasharray:6;}.cls-2,.cls-38,.cls-39{stroke-linecap:round;stroke-linejoin:round;}.cls-3{fill:#50a0ff;}.cls-4{fill:#e9f8ff;}.cls-34,.cls-35,.cls-36,.cls-37,.cls-5{fill:#fff;}.cls-6{fill:#4c2921;}.cls-7{fill:#b9d834;}.cls-8{fill:#62b031;opacity:0.34;}.cls-9{clip-path:url(#clip-path);}.cls-10{fill:#ffbfab;}.cls-11{fill:#e18267;opacity:0.79;}.cls-12{clip-path:url(#clip-path-2);}.cls-13,.cls-19,.cls-24{fill:#f1a38c;}.cls-14{clip-path:url(#clip-path-3);}.cls-15{fill:#7e1b03;}.cls-16{fill:#ce2700;}.cls-17{fill:#fb9891;}.cls-18{fill:#111d41;}.cls-19{opacity:0.7;}.cls-20{clip-path:url(#clip-path-4);}.cls-21{fill:#0e327a;}.cls-22{fill:#e5e5e5;}.cls-23{fill:#fccd25;}.cls-24,.cls-37{opacity:0.56;}.cls-25{fill:#f2bb0a;}.cls-26{clip-path:url(#clip-path-5);}.cls-27{clip-path:url(#clip-path-6);}.cls-28{clip-path:url(#clip-path-7);}.cls-29{clip-path:url(#clip-path-8);}.cls-30{fill:#ef7415;}.cls-31{fill:#ed7220;}.cls-32,.cls-40,.cls-41{fill:#c2e9ff;}.cls-33{fill:#116ef4;}.cls-34{opacity:0.41;}.cls-35{opacity:0.46;}.cls-36{opacity:0.5;}.cls-38,.cls-39{stroke:#fff;stroke-width:2px;}.cls-39{stroke-dasharray:6.02 6.02;}.cls-40{opacity:0.38;}.cls-41{opacity:0.39;}</style> <clipPath id="clip-path"> <path class="cls-1" d="M1063,640l-5,28s8,23,20,25,24-40,24-40Z"></path> </clipPath> <clipPath id="clip-path-2"> <path class="cls-1" d="M1038,483s-26,84-16,121,59,57,84,63,68,1,85-13,46-108,44-135-36-55-89-62S1061,465,1038,483Z"></path> </clipPath> <clipPath id="clip-path-3"> <path class="cls-1" d="M1137,578l54,28s-15,32-37,24S1137,578,1137,578Z"></path> </clipPath> <clipPath id="clip-path-4"> <path class="cls-1" d="M1036,545s-25-33-53-18-11,60,17,59,30-12,30-12Z"></path> </clipPath> <clipPath id="clip-path-5"> <path class="cls-1" d="M717,688l4,38s13,17,35,4c11.71-6.92,10-15,10-15l-7-28S734,675,717,688Z"></path> </clipPath> <clipPath id="clip-path-6"> <path class="cls-1" d="M627,541l12,112s25,53,90,50,91-32,102-59,7-115,7-115L686,484Z"></path> </clipPath> <clipPath id="clip-path-7"> <path class="cls-1" d="M675,624l80-15s1,45-34,49C684.89,662.13,675,624,675,624Z"></path> </clipPath> <clipPath id="clip-path-8"> <path class="cls-1" d="M828,610s25-17,45,0,7,50.82-17,53c-22,2-33-12-33-12Z"></path> </clipPath> </defs> <path class="cls-2" d="M430.62,864.4H209.68A36.68,36.68,0,0,1,173,827.72v-198A36.68,36.68,0,0,1,209.68,593h20.64A36.68,36.68,0,0,0,267,556.32V427.68A36.68,36.68,0,0,0,230.32,391H163a36.68,36.68,0,0,1-36.68-36.68V249.68A36.68,36.68,0,0,1,163,213H477"></path> <circle class="cls-3" cx="1623.5" cy="225.5" r="170.5"></circle> <rect class="cls-4" x="408" y="199" width="1252" height="802" rx="69.29"></rect> <rect class="cls-5" x="480" y="252" width="1137" height="710" rx="38.46"></rect> <path class="cls-6" d="M1114,582.33s-32.34,31-32.17,55.12S1108,649.14,1108,649.14s-11.6,16.11,2.25,24.9,36.21.75,36.21.75-1,11.13,4.07,11.68,5.16-9.51,5.16-9.51,16.2,12.6,35.77-4.23,6.72-36.76,6.72-36.76,10-.9,11.23-9.05-8.14-12.31-8.14-12.31,13.31-8.23,1.46-39.29-55.94-15.56-55.94-15.56Z"></path> <path class="cls-6" d="M1031,579s-28-35-52-37-14,25-14,25-15-13-25,0-4,36-4,36-11-2-12,3,9,6,9,6-14,15,1,36,36,10,36,10,0,10,8,12,13-7,13-7,7,14,39,5,20.53-54.32,20.53-54.32Z"></path> <path class="cls-7" d="M1071,673s-29-19-46-15-53,85-71,137-47,144-47,144h369s-150-253-168-263C1095.27,668.93,1071,673,1071,673Z"></path> <path class="cls-8" d="M1072,670l-.62-.22L1049.17,662s10.36,20.13,20.6,26.55S1079,682,1079,682Z"></path> <g class="cls-9"> <path class="cls-10" d="M1063,640l-5,28s8,23,20,25,24-40,24-40Z"></path> <path class="cls-11" d="M1105,669s-47-1-55-11,1-20,1-20l52,8Z"></path> </g> <g class="cls-12"> <path class="cls-10" d="M1038,483s-26,84-16,121,59,57,84,63,68,1,85-13,46-108,44-135-36-55-89-62S1061,465,1038,483Z"></path> <path class="cls-13" d="M1167,574s8-8,13-6,2,12,2,12Z"></path> <g class="cls-14"> <path class="cls-15" d="M1137,578l54,28s-15,32-37,24S1137,578,1137,578Z"></path> <polygon class="cls-5" points="1136 582 1168 600 1171 600 1171 602 1183 608 1194 600 1135 570 1136 582"></polygon> <path class="cls-16" d="M1137,611s16-1,23,4,14,13,14,17-18,5-18,5l-20-14Z"></path> </g> <circle class="cls-17" cx="1085" cy="558" r="24"></circle> <circle class="cls-17" cx="1226.5" cy="601.5" r="19.5"></circle> <ellipse class="cls-18" cx="1131" cy="533.5" rx="5" ry="15.5"></ellipse> <ellipse class="cls-18" cx="1206.31" cy="554.93" rx="12.8" ry="3.83" transform="translate(395.65 1606.58) rotate(-77.08)"></ellipse> <path class="cls-13" d="M1020,555s-5-14-16-15-15,5-15,5S1012,547,1020,555Z"></path> <path class="cls-13" d="M1018,560l-15,5s1-13,7-12S1018,560,1018,560Z"></path> <path class="cls-19" d="M1032,564s4.68,31.51,11,41c8,12,39,42,82,50s76-7,76-7l-37,33-118-22-60-28,14.36-51.87Z"></path> </g> <g class="cls-20"> <path class="cls-10" d="M1036,545s-25-33-53-18-11,60,17,59,30-12,30-12Z"></path> <path class="cls-19" d="M967,559s12,16,32,18c21,2.1,33-13,33-13l-6,25-23,9-28-4Z"></path> </g> <path class="cls-13" d="M1015.26,552.27s-5.64-9.81-16.78-10.74a18.07,18.07,0,0,0-16.38,7S993.83,543.39,1015.26,552.27Z"></path> <path class="cls-13" d="M1011,553s-7-2-11,0-2,8-2,8S1004,554,1011,553Z"></path> <path class="cls-6" d="M1015,476s2-66,21-70,36,10,36,10,4-33,42-42,73,14,73,14,10-8,14-7,1,23,1,23,63-11,71,29-18,55-18,55,6,5,5,10-10,5-10,5,21,9,18,38-41,25-41,25,3.56-14.34,6-29c3-18,1-22,1-22s-37,9-71-6-8-22-8-22-27,12-79,9-39-6-39-6l-11,46-20-12s-19-33-10-40A41,41,0,0,1,1015,476Z"></path> <path class="cls-6" d="M1018.08,484.2s-4.54-42.93-9.85-48.87-10.42,4.61-6,16.87S1018.08,484.2,1018.08,484.2Z"></path> <path class="cls-6" d="M1022,486s-20-25-30-26-11,12-11,12,13-6,19-2S1022,486,1022,486Z"></path> <path class="cls-6" d="M1030,489s12,22,21,20-3-25-3-25Z"></path> <polygon class="cls-8" points="1028 938 1032 698 1036 725 1042 699 1064 938 1028 938"></polygon> <path class="cls-8" d="M1123,721s38,81,49,109,37.34,109,37.34,109l32.66-1S1140,743,1123,721Z"></path> <path class="cls-6" d="M1116,508s12-10,19-10a9.39,9.39,0,0,1,9,6s5.78.16,5,2C1146.16,512.75,1122.79,506.67,1116,508Z"></path> <path class="cls-6" d="M1221.62,534.94s-2.41-12.86-6.74-15.42-8.58,1.78-8.58,1.78-3.65-2-4.09-.14C1200.59,527.91,1218.09,531.33,1221.62,534.94Z"></path> <rect class="cls-21" x="943" y="926" width="251" height="14" rx="7"></rect> <path class="cls-21" d="M1091.56,807h251a11.77,11.77,0,0,1,11.77,11.77v0a0,0,0,0,1,0,0H1091.56a0,0,0,0,1,0,0V807A0,0,0,0,1,1091.56,807Z" transform="matrix(0.27, -0.96, 0.96, 0.27, 110.6, 1771.6)"></path> <polygon class="cls-22" points="1548.65 940 1194 940 1264.35 688 1619 688 1548.65 940"></polygon> <path class="cls-5" d="M1447.72,816.09c-4.38,16.49-19,28.85-33,28.85s-23.89-12.36-21.89-28.85c2.18-18.07,17.52-34,34-34S1452.53,798,1447.72,816.09Z"></path> <circle class="cls-23" cx="280" cy="994" r="104"></circle> <circle class="cls-23" cx="1553" cy="934" r="32"></circle> <path class="cls-10" d="M572,369l-9-6-11.3-14c1.36-12.83,6.82-66.73,3.3-72-4-6-13-5-13-5s-1,5,0,20c.76,11.34-.77,34.69-1.57,45.4L495,349l7,31,25.83,38.75L530,422l31,6-1-31Z"></path> <path class="cls-19" d="M540,341l7,28s-4,3-8,3a7.5,7.5,0,0,1-6-3l-4-12,2,13s-13,5-20,4-12-21-12-21l8,25h7l-4,6s16-4,24,4,8,13,8,13a28.89,28.89,0,0,0,10,0c5-1,7-6,7-6l5-9s-9,8-13-2c-2.26-5.65,10-16,10-16l-4-1-2-4Z"></path> <polygon class="cls-24" points="543 298 543 316 545 306 553 306 545 302 543 298"></polygon> <polygon class="cls-19" points="557 414 528 419 560.17 414.55 557 414"></polygon> <path class="cls-23" d="M503,423l79-12s24,129,44,196,35,73,66,86,23.57,10.06,23.57,10.06L724,723l-33,36-22,65S572.76,681.76,552,637C520,568,503,423,503,423Z"></path> <path class="cls-23" d="M714,707s28,1,44,4,53.82,18.83,68,31c61.1,52.42,118,247,118,247l-316,5s24-187,47-236S714,707,714,707Z"></path> <path class="cls-25" d="M719.91,707.91S714,731,728,735s35,1,43-14S719.91,707.91,719.91,707.91Z"></path> <g class="cls-26"> <path class="cls-10" d="M717,688l4,38s13,17,35,4c11.71-6.92,10-15,10-15l-7-28S734,675,717,688Z"></path> <path class="cls-11" d="M711,695c2,1,2,17,32,18s37-10,37-10l-5-17Z"></path> </g> <g class="cls-27"> <path class="cls-10" d="M627,541l12,112s25,53,90,50,91-32,102-59,7-115,7-115L686,484Z"></path> <path class="cls-13" d="M704,578s-13,3-12,10,13,11,13,11l11-7s-13,3-15-5S704,578,704,578Z"></path> <path class="cls-19" d="M627.34,637.72s15,34,51,48,87-1,108-13,41-54,41-54l26,51s-30,26-32,27-109,31-109,31-40-2-42-2-54-59-54-59Z"></path> <ellipse class="cls-17" cx="785" cy="594.5" rx="24" ry="23.5"></ellipse> <ellipse class="cls-17" cx="641.5" cy="607.09" rx="19.5" ry="19.09"></ellipse> <ellipse class="cls-18" cx="671.68" cy="571.23" rx="3.33" ry="13" transform="translate(-46.04 59.04) rotate(-4.87)"></ellipse> <ellipse class="cls-18" cx="742.39" cy="563.06" rx="3.8" ry="13.79" transform="translate(-45.09 65.01) rotate(-4.87)"></ellipse> <g class="cls-28"> <path class="cls-15" d="M675,624l80-15s1,45-34,49C684.89,662.13,675,624,675,624Z"></path> <path class="cls-16" d="M694,658s15-20,34-21a34.79,34.79,0,0,1,29,13l-36,18Z"></path> <path class="cls-5" d="M681.63,617c1.38,4.26,4.3,11.77,4.3,11.77l26.45-1.08,2.79-6.13,4.58,4.2L748.48,623l.55-17.11Z"></path> </g> </g> <g class="cls-29"> <path class="cls-10" d="M828,610s25-17,45,0,7,51.15-17,53c-26,2-33-12-33-12Z"></path> <path class="cls-19" d="M824.85,627S830,645,845,650s33,0,38-7,6,17,6,17l-59,11-12-16Z"></path> </g> <path class="cls-13" d="M841,620s7-5,15-3,12,12,12,12S852,617,841,620Z"></path> <path class="cls-13" d="M841,620s9.88-1,9.88,6-3.71,10-3.71,10A26.65,26.65,0,0,0,841,620Z"></path> <path class="cls-30" d="M735,442s14-16,22-13,1,26,1,26,45-52,84-15,8,79,8,79,22-17,29-14-21,24-21,24,50-7,57,26-44,61-74,53-14-63-14-63-15,6-22,1,0-22,0-22-32,13-64,0-41-34-41-34-3,16-11,15-9-11-9-11-7,29-23,44-25,7-25,7,11,13,0,24-24,4-31-3-22-20-13-39,20-15,20-15-25-52,5-73,61,5,61,5-16-47,19-48S735,442,735,442Z"></path> <path class="cls-31" d="M741,528a30.23,30.23,0,0,1,9,6c4,4,2,11,2,11s-19-4-18-9,6-3,6-3S739,534,741,528Z"></path> <path class="cls-31" d="M673.46,536a30.23,30.23,0,0,0-9,6c-4,4-2,11-2,11s19-4,18-9-6-3-6-3S675.46,542,673.46,536Z"></path> <path class="cls-25" d="M659.57,808.43S668,777,672,764s8-25,8-25l-23,57-10-19,7,23Z"></path> <polygon class="cls-25" points="814 791 814.13 990.55 861.11 992.6 814 787 814 791"></polygon> <polygon class="cls-25" points="824 845 826 793 829.45 858.81 824 845"></polygon> <path class="cls-25" d="M613,589c-6,0-25,3-40,9s-25,13-22,13S613,589,613,589Z"></path> <path class="cls-25" d="M617.63,587.1c-5.84,1.38-23.64,8.67-36.86,18s-21.33,18.41-18.42,17.72S617.63,587.1,617.63,587.1Z"></path> <rect class="cls-21" x="638" y="986" width="294" height="14" rx="7" transform="translate(1570 1986) rotate(180)"></rect> <path class="cls-21" d="M563.43,748,635.71,1001l11.57-3.17-69-241.73a12,12,0,0,0-14.8-8.16Z"></path> <polygon class="cls-22" points="272.82 1000 634.9 1000 563.08 748 201 748 272.82 1000"></polygon> <path class="cls-5" d="M375.86,876.09c4.48,16.49,19.44,28.85,33.75,28.85S434,892.58,432,876.09c-2.23-18.07-17.89-34-34.77-34S371,858,375.86,876.09Z"></path> <path class="cls-32" d="M213,549.38V505.19a14.07,14.07,0,0,1,14.06-14.07H391.79a14.07,14.07,0,0,1,14.07,14.07v28.12a14.06,14.06,0,0,0,14.06,14.07h4A14.06,14.06,0,0,1,438,561.44v64.28a14.07,14.07,0,0,1-14.06,14.07h-8a14.06,14.06,0,0,0-14.06,14.06v20.09A14.07,14.07,0,0,1,387.78,688H231.08A14.06,14.06,0,0,1,217,673.94V641.79a14.06,14.06,0,0,1,14.06-14.06h0a14.05,14.05,0,0,0,14.06-14.06V577.51a14.05,14.05,0,0,0-14.06-14.06h-4A14.07,14.07,0,0,1,213,549.38Z"></path> <path class="cls-32" d="M1345,585.45V559.12a8.37,8.37,0,0,1,8.37-8.37h98.11a8.38,8.38,0,0,1,8.38,8.37v16.76a8.37,8.37,0,0,0,8.37,8.37h2.4a8.37,8.37,0,0,1,8.37,8.37v38.29a8.38,8.38,0,0,1-8.37,8.38h-4.79a8.38,8.38,0,0,0-8.38,8.37v12a8.37,8.37,0,0,1-8.37,8.37h-93.32a8.38,8.38,0,0,1-8.38-8.37V640.48a8.38,8.38,0,0,1,8.38-8.37h0a8.38,8.38,0,0,0,8.37-8.38V602.2a8.38,8.38,0,0,0-8.37-8.38h-2.4A8.37,8.37,0,0,1,1345,585.45Z"></path> <path class="cls-3" d="M1555,452.45V426.12a8.37,8.37,0,0,1,8.37-8.37h98.11a8.38,8.38,0,0,1,8.38,8.37v16.76a8.37,8.37,0,0,0,8.37,8.37h2.4a8.37,8.37,0,0,1,8.37,8.37v38.29a8.38,8.38,0,0,1-8.37,8.38h-4.79a8.38,8.38,0,0,0-8.38,8.37v12a8.37,8.37,0,0,1-8.37,8.37h-93.32a8.38,8.38,0,0,1-8.38-8.37V507.48a8.38,8.38,0,0,1,8.38-8.37h0a8.38,8.38,0,0,0,8.37-8.38V469.2a8.38,8.38,0,0,0-8.37-8.38h-2.4A8.37,8.37,0,0,1,1555,452.45Z"></path> <path class="cls-33" d="M401,168V137.64a9.65,9.65,0,0,1,9.64-9.64h113a9.64,9.64,0,0,1,9.64,9.64v19.29a9.65,9.65,0,0,0,9.65,9.64h2.75a9.65,9.65,0,0,1,9.65,9.64V220.3a9.65,9.65,0,0,1-9.65,9.64h-5.51a9.65,9.65,0,0,0-9.64,9.64v13.78a9.65,9.65,0,0,1-9.64,9.64H413.4a9.64,9.64,0,0,1-9.64-9.64v-22a9.64,9.64,0,0,1,9.64-9.65h0A9.64,9.64,0,0,0,423,212v-24.8a9.65,9.65,0,0,0-9.64-9.64h-2.76A9.65,9.65,0,0,1,401,168Z"></path> <path class="cls-3" d="M59,370.52v-31.4a10,10,0,0,1,10-10H186a10,10,0,0,1,10,10v20a10,10,0,0,0,10,10h2.86a10,10,0,0,1,10,10v45.67a10,10,0,0,1-10,10h-5.71a10,10,0,0,0-10,10V459a10,10,0,0,1-10,10H71.85a10,10,0,0,1-10-10V436.17a10,10,0,0,1,10-10h0a10,10,0,0,0,10-10V390.5a10,10,0,0,0-10-10H69A10,10,0,0,1,59,370.52Z"></path> <path class="cls-34" d="M452.29,211h56.85a4.51,4.51,0,0,0,3.48-7.38l-28.43-34.41a4.51,4.51,0,0,0-6.95,0l-28.43,34.41A4.51,4.51,0,0,0,452.29,211Z"></path> <path class="cls-35" d="M1389.29,626h56.85a4.51,4.51,0,0,0,3.48-7.38l-28.43-34.41a4.51,4.51,0,0,0-7,0l-28.43,34.41A4.51,4.51,0,0,0,1389.29,626Z"></path> <path class="cls-5" d="M308,554.92v82.47a6.54,6.54,0,0,0,10.71,5l49.91-41.23a6.54,6.54,0,0,0,0-10.09l-49.91-41.23A6.54,6.54,0,0,0,308,554.92Z"></path> <path class="cls-36" d="M1610,446.57v56.86a4.51,4.51,0,0,0,7.38,3.47l34.41-28.42a4.52,4.52,0,0,0,0-7l-34.41-28.42A4.51,4.51,0,0,0,1610,446.57Z"></path> <path class="cls-37" d="M155,375.57v56.86a4.51,4.51,0,0,1-7.38,3.47l-34.41-28.42a4.52,4.52,0,0,1,0-7l34.41-28.42A4.51,4.51,0,0,1,155,375.57Z"></path> <circle class="cls-7" cx="1493.3" cy="284.5" r="9.5"></circle> <circle class="cls-7" cx="1527.5" cy="284.5" r="9.5"></circle> <circle class="cls-7" cx="1565.5" cy="284.5" r="9.5"></circle> <line class="cls-38" x1="1690.87" y1="476.32" x2="1693.87" y2="476.32"></line> <path class="cls-39" d="M1699.89,476.32H1763a28,28,0,0,1,28,28V928a28,28,0,0,1-28,28h-96.77"></path> <line class="cls-38" x1="1663.23" y1="956" x2="1660.23" y2="956"></line> <circle class="cls-5" cx="1790.5" cy="611.5" r="18.5"></circle> <rect class="cls-40" x="457" y="216" width="46" height="13" rx="2.59"></rect> <rect class="cls-41" x="1590" y="447" width="15" height="58" rx="3.62"></rect> </svg> 